<?xml version="1.0" standalone="no"?>
<!DOCTYPE svg PUBLIC "-//W3C//DTD SVG 1.1//EN" "http://www.w3.org/Graphics/SVG/1.1/DTD/svg11.dtd" >
<svg xmlns="http://www.w3.org/2000/svg">
<metadata>
Created by FontForge 20120731 at Thu Jan  5 12:48:11 2017
 By admin
</metadata>
<defs>
<font id="iconfont" horiz-adv-x="1024" >
  <font-face 
    font-family="iconfont"
    font-weight="500"
    font-stretch="normal"
    units-per-em="1024"
    panose-1="2 0 6 3 0 0 0 0 0 0"
    ascent="896"
    descent="-128"
    x-height="792"
    bbox="-0.5 -212 28723 896"
    underline-thickness="0"
    underline-position="0"
    unicode-range="U+0078-E633"
  />
<missing-glyph 
 />
    <glyph glyph-name=".notdef" 
 />
    <glyph glyph-name=".notdef" 
 />
    <glyph glyph-name=".null" horiz-adv-x="0" 
 />
    <glyph glyph-name="nonmarkingreturn" horiz-adv-x="341" 
 />
    <glyph glyph-name="x" unicode="x" horiz-adv-x="1001" 
d="M281 543q-27 -1 -53 -1h-83q-18 0 -36.5 -6t-32.5 -18.5t-23 -32t-9 -45.5v-76h912v41q0 16 -0.5 30t-0.5 18q0 13 -5 29t-17 29.5t-31.5 22.5t-49.5 9h-133v-97h-438v97zM955 310v-52q0 -23 0.5 -52t0.5 -58t-10.5 -47.5t-26 -30t-33 -16t-31.5 -4.5q-14 -1 -29.5 -0.5
t-29.5 0.5h-32l-45 128h-439l-44 -128h-29h-34q-20 0 -45 1q-25 0 -41 9.5t-25.5 23t-13.5 29.5t-4 30v167h911zM163 247q-12 0 -21 -8.5t-9 -21.5t9 -21.5t21 -8.5q13 0 22 8.5t9 21.5t-9 21.5t-22 8.5zM316 123q-8 -26 -14 -48q-5 -19 -10.5 -37t-7.5 -25t-3 -15t1 -14.5
t9.5 -10.5t21.5 -4h37h67h81h80h64h36q23 0 34 12t2 38q-5 13 -9.5 30.5t-9.5 34.5q-5 19 -11 39h-368zM336 498v228q0 11 2.5 23t10 21.5t20.5 15.5t34 6h188q31 0 51.5 -14.5t20.5 -52.5v-227h-327z" />
    <glyph glyph-name="guanbi" unicode="&#xe601;" 
d="M870 658q-73 73 -167.5 110.5t-190.5 37.5t-190.5 -37.5t-167 -110.5t-110.5 -167.5t-38 -190.5t38 -190.5t110.5 -167.5t167 -110.5t190.5 -37.5t190.5 37.5t167.5 110.5t111 167.5t38 190.5t-38 190.5t-111 167.5zM183 -29q-67 67 -101.5 154t-34.5 175t34.5 175
t101.5 154q89 89 209 121t240 0t209.5 -121t121 -209t0 -240t-121 -209t-209.5 -121t-240 0t-209 121zM741 500l-28 29l-201 -200l-199 199l-29 -29l200 -199l-200 -199l29 -29l199 199l201 -200l28 29l-200 200z" />
    <glyph glyph-name="next" unicode="&#xe602;" 
d="M749 247l-412 -411q-14 -14 -34 -14t-34 14t-14 34t14 34l377 378l-377 377q-14 14 -14 34t14 34.5t34 14.5t34 -15l412 -411q14 -14 14 -34t-14 -35v0z" />
    <glyph glyph-name="shijian" unicode="&#xe603;" 
d="M512 628q-89 0 -165 -44t-119.5 -120t-43.5 -165t43.5 -164.5t119.5 -119.5t165 -44t165 44t119.5 119.5t43.5 164.5t-43.5 165t-119.5 120t-165 44zM512 14q-118 0 -201.5 83.5t-83.5 201.5t83.5 201.5t201.5 83.5t201.5 -83.5t83.5 -201.5t-83.5 -201.5t-201.5 -83.5z
M654 277h-142v143q0 4 -3 7t-8 3h-22q-4 0 -7.5 -3t-3.5 -7v-154v-22q0 -4 3.5 -7.5t7.5 -3.5h175q5 0 8 3.5t3 7.5v22q0 5 -3 8t-8 3z" />
    <glyph glyph-name="gouwuche" unicode="&#xe604;" 
d="M353 -20q-26 0 -45 -18.5t-19 -45t19 -45.5t45.5 -19t45 19t18.5 45.5t-18.5 45t-45.5 18.5v0zM801 -20q-26 0 -45 -18.5t-19 -45t19 -45.5t45.5 -19t45 19t18.5 45.5t-18.5 45t-45.5 18.5v0zM937 624q-25 28 -63 28h-641l-2 13q-5 35 -32 59t-62 24h-40
q-13 0 -22.5 -9.5t-9.5 -22.5t9.5 -22.5t22.5 -9.5h40q11 0 20 -8.5t10 -19.5l31 -179l54 -382q5 -35 31.5 -59t61.5 -24h520q13 0 22.5 9.5t9.5 22.5t-9.5 22.5t-22.5 9.5h-520q-10 0 -19 8t-10 19l-5 38l507 31q35 0 61.5 24t30.5 58l51 288q6 48 -24 82z" />
    <glyph glyph-name="taobao" unicode="&#xe607;" 
d="M878 812h-732q-60 0 -103 -43t-43 -103v-732q0 -60 43 -103t103 -43h732q60 0 103 43t43 103v732q0 60 -43 103t-103 43zM277 577q27 0 46 -17t19 -41.5t-19 -41.5t-46 -17t-46 17t-19 41.5t19 41.5t46 17zM331 227q-6 -20 -11 -31.5t-10 -22t-22 -46.5t-38 -82l-99 62
q13 11 32 29t55 57t46 60q10 24 4 40.5t-18 24.5l-12 9l-76 47l41 63q43 -32 57 -44t43 -41q21 -21 22 -53.5t-14 -71.5zM867 158q-4 -37 -20 -63t-38.5 -38.5t-49 -19t-52.5 -5.5t-47 3.5t-34 5.5l-13 3l13 52l54 -12q79 -5 90 60q1 6 1 22v255q1 140 -256 48l38 -10
q-4 -15 -31 -49h220v-44h-124v-56h124v-45h-124v-94q29 10 51 26l-11 41l59 18l48 -119l-72 -30l-13 48q-79 -61 -215 -58q-89 -2 -96 88q-2 28 3 53l3 2h88q0 -4 -2 -20t-1.5 -27t5.5 -18q9 -15 45 -17h1.5h2.5v107h-127v45h127v56h-32l-55 -56l-38 34q32 34 71 104
q-18 -7 -42 -18q-24 -29 -49 -54q0 -1 -15.5 8t-31.5 18l-16 9q30 25 55.5 69.5t36.5 74t11 32.5l91 -26q-8 -17 -23 -44q74 21 135.5 28.5t100 4t68.5 -15t44.5 -23.5t24 -27.5t11 -21t1.5 -9.5v0q1 -4 2.5 -13t5 -38.5t4.5 -61.5t0 -82t-7 -100z" />
    <glyph glyph-name="fanhui" unicode="&#xe608;" 
d="M742 -212q-26 0 -44 18l-460 451q-19 17 -19 42.5t19 43.5l460 451q18 18 44 18t44.5 -18t18.5 -43.5t-19 -43.5l-415 -407l415 -407q19 -18 19 -43.5t-18.5 -43.5t-44.5 -18v0z" />
    <glyph glyph-name="wifi" unicode="&#xe609;" horiz-adv-x="1355" 
d="M898 8q-36 0 -60 27q-65 71 -161 71t-160 -71q-22 -25 -55.5 -26.5t-58.5 21t-27 56t21 58.5q54 59 127 91.5t153 32.5t153.5 -32.5t127.5 -91.5q22 -25 20.5 -58.5t-26.5 -56.5q-23 -21 -54 -21v0zM1077 211q-33 0 -57 23q-69 69 -157.5 105.5t-185.5 36.5t-185.5 -36.5
t-157.5 -104.5q-24 -24 -57.5 -24t-57 24t-23.5 57.5t24 57.5q91 91 209.5 139.5t247.5 48.5q130 0 248 -48.5t210 -140.5q23 -23 23 -56.5t-23 -57.5q-24 -24 -58 -24v0zM1257 413q-33 0 -56 23q-106 102 -241.5 156t-282.5 54t-282 -54t-241 -156q-25 -23 -58.5 -22.5
t-56.5 25t-22.5 58t24.5 56.5q129 123 293 189t343 66t343 -66t293 -189q24 -23 24.5 -57t-22.5 -58q-24 -25 -58 -25v0zM579 -110q0 -41 29 -69.5t69.5 -28.5t69 28.5t28.5 69t-28.5 69.5t-69 29t-69.5 -29t-29 -69v0z" />
    <glyph glyph-name="wodedingdan18" unicode="&#xe60a;" horiz-adv-x="1025" 
d="M1014 579l-438 -615q-23 -32 -64 -32t-64 32l-438 615q-21 30 0 59.5t63 29.5h878q42 0 63 -29.5t0 -59.5z" />
    <glyph glyph-name="huidingbu" unicode="&#xe605;" 
d="M154 408l368 316h-20l367 -320q13 -11 23.5 1.5t-1.5 22.5l-368 320q-11 10 -21 0l-368 -316q-13 -10 -2.5 -22t22.5 -2zM80 800h864q7 0 11.5 4.5t4.5 11.5t-4.5 11.5t-11.5 4.5h-864q-7 0 -11.5 -4.5t-4.5 -11.5t4.5 -11.5t11.5 -4.5zM496 672v-720q0 -7 4.5 -11.5
t11.5 -4.5t11.5 4.5t4.5 11.5v720q0 7 -4.5 11.5t-11.5 4.5t-11.5 -4.5t-4.5 -11.5z" />
    <glyph glyph-name="zuji-copy" unicode="&#xe60c;" 
d="M730 665q0 20 14.5 34t34.5 14t34.5 -14t14.5 -34t-14.5 -34.5t-34.5 -14.5t-34.5 14.5t-14.5 34.5v0zM599 745q0 24 17 41t41.5 17t42 -17t17.5 -41t-17.5 -41t-42 -17t-41.5 17t-17 41v0zM418 771q0 28 20.5 47.5t49 19.5t48.5 -19.5t20 -47.5t-20 -48t-48.5 -20
t-49 20t-20.5 48v0zM196 761q0 36 26 61.5t62.5 25.5t62.5 -25.5t26 -61.5t-26 -61.5t-62.5 -25.5t-62.5 25.5t-26 61.5v0zM610 653v0h-2.5h-2.5h-3h-3h-207h-3h-3h-2.5h-2.5h-4v0q-60 -4 -101 -46.5t-41 -100.5q0 -39 19.5 -72.5t52.5 -53.5v0l3 -2q3 -2 8 -6t15 -23
t13 -44.5t-6 -73.5t-33 -107v0q-12 -27 -12 -56q0 -61 44.5 -104.5t107.5 -43.5q54 0 96 34v0v0q115 92 181.5 225t68.5 284q0 1 0.5 3t0.5 3q0 75 -53.5 128.5t-130.5 55.5v0z" />
    <glyph glyph-name="duihua" unicode="&#xe60d;" 
d="M508 836q93 1 175 -34t144 -95t98 -141.5t37 -174.5q1 -88 -30.5 -166t-87.5 -137.5t-131 -98.5t-162 -48q-23 -3 -48.5 -5.5t-56.5 -3.5t-69.5 0t-86.5 7q-107 10 -158.5 26.5t-41.5 18.5q54 9 93 29q21 12 17.5 33t-20.5 39q-52 57 -84.5 133.5t-34.5 164.5
q-1 93 34 175t95.5 143.5t142.5 97.5t175 37zM708 385q0 -27 18 -45.5t45 -18.5t46 18.5t19 45.5t-19 45.5t-46 18.5t-45 -18.5t-18 -45.5zM451 385q0 -27 19 -46.5t46 -19.5q28 0 47 19.5t19 46.5q0 28 -19 47t-47 19q-27 0 -46 -19t-19 -47zM197 386q0 -27 18.5 -46
t45.5 -19q28 0 47 19t19 46t-19 46t-47 19q-27 0 -45.5 -19t-18.5 -46z" />
    <glyph glyph-name="qianggou" unicode="&#xe60f;" 
d="M937 47l-60 499q-1 36 -27.5 61t-62.5 25h-81v40q0 75 -53 128t-128 53t-128 -53t-53 -128v-40h-81q-36 0 -62 -25t-28 -61l-60 -499q-1 -4 -1 -7q0 -38 26.5 -64.5t64.5 -26.5h644q38 0 64.5 26.5t26.5 64.5q0 3 -1 7zM405 672q0 50 35 85.5t85 35.5t85.5 -35.5
t35.5 -85.5v-40h-241v40zM689 316l-6 -5l-168 -178l-62 -66l27 75l38 103q1 2 2 5t3 11t-1 11q-1 4 -5 5.5t-8 2.5h-3h-79h-10q-5 0 -14 0.5t-13 0.5t-9.5 0.5t-8 2t-3.5 3.5t-1 4.5v4t1 4t1.5 4t2.5 4.5t3 4t3.5 4.5t3.5 4.5l9 11l184 207l-42 -141q-1 -2 -2 -5t-2 -11
t2 -10q2 -3 7 -4.5t9 -0.5h3h135q23 2 28 -9q5 -10 -25 -42z" />
    <glyph glyph-name="duihua1" unicode="&#xe614;" 
d="M691 830q82 -36 142 -97q61 -62 95 -144q35 -82 34 -175q-2 -88 -34 -164t-85 -134q-16 -18 -19.5 -39t16.5 -32q39 -21 93 -30q8 -2 -20 -11q-9 -4 -21 -7q-52 -17 -158 -27q-50 -5 -87 -6q-38 -1 -69 0q-33 1 -57 3q-26 2 -48 5q-87 9 -163 48q-75 39 -131 99t-87 138
t-30 166q1 93 37 174.5t98 141t144 94.5t175 34t175 -37zM316 416q0 27 -18.5 45.5t-45 18.5t-45.5 -18.5t-19 -45.5q0 -26 19 -45t45.5 -19t45 19t18.5 45v0zM553.5 463q-19.5 19 -46.5 19t-46 -19t-19 -47q0 -26 19 -45.5t46 -19.5t46.5 19.5t19.5 45.5q0 28 -19.5 47z
M808 463q-19 19 -46 19t-46 -19t-19 -45.5t19 -46t46 -19.5t46 19.5t19 45.5q0 27 -19 46z" />
    <glyph glyph-name="3" unicode="&#xe606;" 
d="M804 829h-542q-43 0 -73.5 -30.5t-30.5 -73.5v-694q0 -43 30.5 -73.5t73.5 -30.5h542q43 0 73.5 30.5t30.5 73.5v694q1 43 -30 73.5t-74 30.5zM687 377q0 -14 -10 -24.5t-25 -10.5h-342q-14 0 -24.5 10t-10.5 25q0 14 10.5 24.5t24.5 10.5h342q15 0 25 -10.5t10 -24.5z
M531.5 655q21.5 0 37 -15t15.5 -36.5t-15.5 -37t-37 -15.5t-36.5 15t-15 37t15 37t36.5 15zM327.5 655q21.5 0 37 -15t15.5 -36.5t-15.5 -37t-37 -15.5t-37 15t-15.5 37q1 22 16 37t36.5 15zM754 136h-444q-14 0 -24.5 10t-10.5 24q0 15 10.5 25t24.5 10h444q14 0 24.5 -10
t10.5 -24.5t-10 -24.5t-25 -10zM737 551q-21 0 -36.5 15.5t-15.5 37.5q0 21 15 36.5t37 15.5t37.5 -15.5t15.5 -36.5q0 -22 -15.5 -37.5t-37.5 -15.5v0z" />
    <glyph glyph-name="duihua2" unicode="&#xe611;" 
d="M888 764h-546q-17 0 -29 -12.5t-12 -28.5v-383q0 -16 12 -28t29 -12h364l92 -78q12 -12 27 -12h1q16 0 26 11l1 1q3 3 4 5q1 0 2 2l2 4v3q1 3 2 5q1 5 1 7v63h25q16 0 27.5 11t11.5 27v378q0 15 -12 26t-28 11zM442 522q-17 0 -28.5 11.5t-11.5 28.5t11.5 29t28.5 12
t29 -12t12 -29t-12 -28.5t-29 -11.5zM604 522q-17 0 -28.5 11.5t-11.5 28.5t11.5 29t28.5 12t29 -12t12 -29t-12 -28.5t-29 -11.5zM766 522q-16 0 -28 11.5t-12 28.5t12 29t28.5 12t28.5 -12t12 -29t-12 -28.5t-29 -11.5zM772 194l-86 86h-344q-32 0 -46.5 14.5t-14.5 45.5
v262h-121q-41 0 -41 -28v-20v8v-404q0 -15 12.5 -27t28.5 -13q0 -2 20 -1l20 1l9 -84q0 -5 1 -7q1 -3 2 -5v-3q1 0 1.5 -1.5t1.5 -2.5l1 -2t4 -5l1 -1q10 -11 26 -11h1q16 0 27 12l107 110h405q39 0 39 29v26q-31 0 -54 21z" />
    <glyph glyph-name="tianmao" unicode="&#xe615;" horiz-adv-x="2156" 
d="M1858 102v94h-140v-139h96q18 1 31 14t13 31zM1483 102q0 -18 13.5 -31.5t31.5 -13.5h96v139h-141v-94zM2043 896h-1929q-47 0 -80.5 -33.5t-33.5 -80.5v-797q0 -46 33.5 -79.5t80.5 -33.5h1929q47 0 80.5 33.5t33.5 80.5v796q-1 47 -34.5 80.5t-79.5 33.5zM1391 743h87
v60h93v-60h197v60h93v-60h90v-92h-90v-73h-93v73h-197v-73h-93v73h-87v92zM979 -30q-190 106 -285 218q-47 54 -79 120q-28 -57 -70.5 -109.5t-94.5 -94.5t-98 -72.5t-101 -61.5l-45 80q156 87 242 177.5t110 194.5h-349v92h360v194h-323v92h739v-92h-323v-194h360v-92h-350
q26 -104 111.5 -194.5t241.5 -177.5zM1338 375v-158q0 -31 -13.5 -67.5t-34.5 -62.5q-25 -30 -61 -60t-57 -43t-27 -16l-46 80l2.5 1.5t7 4.5t11 7t14 9.5t16 11.5t17 13.5l17 15t17 16.5t15.5 17q11 15 19 36.5t8 37.5v78l-96 -57l-48 79l145 85v102l-97 -58l-48 79l145 86
v32q-1 24 -15 43q-24 23 -111 22h-14v92h12q25 1 40.5 0t43.5 -4.5t51.5 -14.5t41.5 -29q43 -41 43 -108q4 -90 2 -270zM1951 102q0 -56 -40.5 -96.5t-97.5 -40.5h-285q-56 0 -97 40.5t-41 96.5v414h561v-414zM1717 424h141v-137h-141v137v0zM1483 424h141v-137h-141v137z
" />
    <glyph glyph-name="shangxin" unicode="&#xe617;" horiz-adv-x="2304" 
d="M2055 886h-1812q-65 0 -110.5 -45t-45.5 -109v-695q0 -64 46 -109.5t110 -45.5h1813q64 0 110 45.5t46 109.5v695q-1 64 -47 109t-110 45zM1213 729h175q-18 46 -34 80l78 20q30 -56 47 -101h154v-73h-420v74zM1101 -3h-851v89h348v727h95v-284h347v-89h-347v-354h408
v-89zM1191 96q58 61 85 152l72 -19q-38 -106 -97 -176q-22 21 -60 43zM1466 53q0 -30 -6.5 -46t-23.5 -24q-30 -15 -108 -15q-6 38 -24 74q30 -1 69 -1q8 0 10 3t2 10v225h-182v75h182v87h-187v75h105q-9 62 -34 119l71 18q29 -60 39 -123l-53 -14h131q27 62 47 138l82 -18
q-36 -92 -49 -121h112v-74h-183v-87h169v-75h-169v-226zM1495 222l59 31q54 -78 80 -143l-62 -38q-28 72 -77 150zM2066 427h-96v-473h-87v473h-122v-20q0 -309 -97 -446q-9 11 -31 27.5t-37 24.5q27 40 44.5 89.5t25 105.5t10 99.5t2.5 100.5v327q189 32 292 77l71 -65
q-99 -38 -280 -71v-167h305v-82z" />
    <glyph glyph-name="shanchu" unicode="&#xe60b;" 
d="M732 686q20 -3 60.5 -2t54.5 -2q40 -7 59.5 -39t15.5 -82h-65q-1 -66 -1 -356q0 -18 1 -56.5t1 -67.5t-3 -53q-4 -37 -28.5 -60t-59.5 -29q-20 -4 -45.5 -4.5t-60.5 1t-48 1.5q-35 0 -99 -0.5t-116 -0.5t-97 1q-75 1 -108 47q-4 4 -7 9.5t-5 12.5t-3.5 12t-2.5 14.5
t-1.5 14t-0.5 16v15.5v17.5v17.5v448h-62q-7 45 10 77t52 43q14 5 36 5.5t42.5 -1t45.5 0.5q-2 25 -0.5 46.5t6.5 37.5t17.5 26.5t33.5 12.5q11 2 26 2t34.5 -1t29.5 -1h182q3 0 19 0.5t22 0t17 -1.5t17.5 -3.5t11.5 -7.5q7 -6 11.5 -15t6 -22t1.5 -22.5v-26.5v-25zM359 744
v-60h311v63h-310q-1 -1 -1 -3zM298 554v-379q0 -7 -0.5 -23t-0.5 -28.5t0.5 -26.5t4 -24t8.5 -14q6 -4 18 -4.5t19 4.5q6 4 9 13.5t4 23.5t1 26t-0.5 28.5t-0.5 23.5v383h-61q-1 -1 -1 -3zM483 554v-367q0 -4 -1 -36t0 -52.5t6 -29.5q6 -10 21.5 -13t25.5 4q5 4 8 14
t3.5 24.5t0 27.5t-1 28.5t-0.5 22.5v380h-61q-1 -1 -1 -3zM670 554v-384q0 -7 -0.5 -25t-0.5 -28.5t1.5 -24.5t6 -22t11.5 -11q9 -3 20.5 -1.5t15.5 4.5q6 5 8.5 21t2.5 31t-1 37t-1 28v378h-62q-1 -1 -1 -3z" />
    <glyph glyph-name="shanglahengxiantubiao1" unicode="&#xe628;" horiz-adv-x="28723" 
d="M4 416h8934v-43h-8934v43zM9002 395zM8873 395v0q0 -54 38 -91.5t91 -37.5t90.5 37.5t37.5 91.5v0q0 53 -37.5 90.5t-90.5 37.5t-91 -37.5t-38 -90.5v0zM19790 416h8933v-43h-8933v43zM19726 395zM19597 394.5q0 -53.5 38 -91t91 -37.5t90.5 37.5t37.5 91t-37.5 91
t-90.5 37.5t-91 -37.5t-38 -91zM11273 442v-107h381v-69h-381v-240q0 -33 -8.5 -50t-30.5 -27q-20 -9 -52.5 -11t-101.5 -2q-9 45 -26 73h124q13 0 17.5 3.5t4.5 13.5v236h-382v68h382v108h-403v72h253q-25 84 -69 146l69 17q58 -92 77 -154l-39 -9h240q66 132 77 163
l78 -17q-9 -16 -36 -68.5t-42 -77.5h262v-68h-394zM11067 206q-34 -62 -86.5 -122.5t-106.5 -104.5q-36 36 -64 47q124 88 180 206zM11620 686h-767v64h347q-19 50 -52 107l73 18q19 -29 37 -64.5t27 -64.5h335v-60zM11440 232q52 -46 108 -105.5t84 -100.5l-68 -43
q-28 44 -81.5 104t-107.5 111zM11817 -38q122 54 128 150h-17q-33 0 -55 19.5t-22 53.5t22 53.5t55 19.5q41 0 63.5 -32.5t22.5 -87.5q0 -83 -48 -144.5t-132 -87.5zM13012 43q29 0 48.5 3t35 12.5t24.5 22.5t16 37.5t10.5 53t6.5 73.5q37 -22 78 -30q-6 -51 -12.5 -84
t-17.5 -63t-25.5 -46.5t-38.5 -29t-55 -17t-74 -4.5h-386q-124 0 -169 31t-45 123v514h77v-171h540v269h-668v78h745v-472h-77v52h-536v-270q0 -49 25 -63t108 -14h390v-5zM13676 348v-69q-190 -37 -245.5 -50t-75.5 -23q-6 23 -26 73q12 2 26.5 13t23 20t32.5 36
q40 40 111 137q-98 -13 -128.5 -18.5t-42.5 -11.5q-6 23 -26 73q27 5 60 64q25 34 71 121t75 170l72 -34q-66 -151 -171 -309l141 18q26 34 69 111l68 -43q-101 -165 -231 -308zM13685 91q-154 -39 -334 -90l-18 77q86 17 343 77zM14233 395q-48 31 -123.5 70t-141.5 67
q-113 -83 -266 -142q-17 35 -47 65q127 44 244 122t184 173h-360v73h412l12 4l56 -30q-52 -109 -171 -214q181 -77 248 -124zM14010 39h262v-73h-604v73h265v249h-201v72h493v-72h-215v-249zM14692 116q68 13 214 39l4 -69q-45 -8 -510 -98l-17 73q36 4 236 42v172h-202v68
h202v112h73v-112h205v-68h-205v-159zM14392 810h527v-68h-279q-52 -106 -120 -193l262 21q-9 12 -24.5 34t-28.5 39t-25 30l56 34q109 -133 154 -218l-60 -39q-3 8 -15 29.5t-19 35.5q-240 -23 -301 -30.5t-80 -16.5q-6 22 -26 72q3 1 5.5 2t4.5 2t4.5 3.5t4.5 4t5 4.5l5 5
t5.5 6t5 6t5.5 7t7 8q37 46 90 158h-163v64zM15047 172h-73v617h73v-617zM15249 862v-801q0 -70 -43 -82q-14 -6 -40.5 -9t-49 -3.5t-69.5 -0.5q-5 26 -25 77h132q13 0 17.5 4.5t4.5 17.5v797h73zM15544 703v-223q0 -367 -103 -544q-21 22 -64 43q90 161 90 501v296h411
q-30 60 -42 81l68 26q35 -41 60 -107h356v-69h-776v-4zM16058 313q29 -132 76.5 -211t95.5 -76q15 0 23.5 33t14.5 113q17 -13 60 -34q-9 -108 -31 -146.5t-72 -38.5q-77 0 -140 98.5t-99 261.5h-258v-252l155 47v-65q-145 -50 -188 -67.5t-57 -30.5q-6 26 -25 64
q16 4 29.5 18.5t13.5 37.5v535q362 17 531 52l60 -60q-119 -24 -219 -34q9 -123 22 -185h240v-68h-232v8zM15973 378q-17 107 -22 175q-26 -1 -72.5 -4.5t-84 -6t-70.5 -2.5v-162h249zM15930 202q78 -140 103 -219l-60 -25q-43 111 -99 222zM16752 356q-77 -26 -119 -34
v-291q0 -32 -7.5 -48t-27.5 -25q-12 -6 -32 -9t-37 -3.5t-55 -0.5q-13 51 -21 68h90q9 0 13 4t4 14v269l-120 -34l-22 73q58 13 142 39v222h-129v69h129v210h73v-206h107v-73h-107v-205l107 30zM17361 56v-73h-626v73h347q55 195 99 510l81 -13q-45 -280 -107 -492h206v-5z
M17335 622h-548v68h548v-68zM16924 103q-6 80 -26 205t-43 232l69 13q50 -206 77 -432zM17022 703q-15 76 -51 163l73 17q38 -91 51 -158zM17575 95q0 34 24.5 57.5t57.5 23.5q36 0 58.5 -21.5t22.5 -59.5q0 -37 -24 -59.5t-57.5 -22.5t-57.5 22.5t-24 59.5zM17601 665
l-4 120h124v-120l-26 -399h-68z" />
    <glyph glyph-name="renwutupian" unicode="&#xe62a;" 
d="M607 146q-22 0 -30 13q-15 23 19 79q27 44 59 74l3 4l10 -10l-4 -4q-33 -30 -59.5 -75t-16.5 -61q5 -6 19 -6q26 0 79 23l5 2l5 -12l-5 -3q-55 -24 -84 -24zM583 -127q-10 0 -17 5q-17 12 -11 57q-8 2 -23 2q-11 1 -17 1q-18 0 -29 -2q-5 -1 -7 -1q-7 -32 -32 -40
q-5 -2 -12 -2q-25 0 -54 27v0h-1v1q-4 5 -9 11q-19 22 -30.5 39t-30 54.5t-32 95.5t-21.5 133h-10q-79 0 -88 29q-5 19 25 46.5t99 64.5q19 122 95 256q10 17 11 20q12 25 45 55q49 45 100 47h3q83 0 152 -118q19 -26 40.5 -84.5t37.5 -133.5q38 -184 10 -325
q-30 -152 -136 -218h-1v0l-5 -2q-37 -18 -52 -18zM515 -49q15 0 27 -1q27 -2 27 -13v-1q-6 -40 5 -48q3 -2 9 -2q12 0 46 16l4 3q101 62 131 209q27 137 -10 319q-13 61 -34 122.5t-42 91.5v0v0q-66 111 -141 111h-3q-45 -1 -90 -42q-31 -29 -43 -52q-3 -6 -11 -21
q-76 -134 -94 -254l-1 -3l-3 -2q-55 -30 -86 -54q-38 -29 -34 -43q6 -20 76 -20q8 0 15 1v0h6l1 -6q8 -76 21 -134t31.5 -95t29.5 -54t29 -38q8 -10 10 -12q25 -22 44 -22q5 0 8 1q18 6 23 30q1 9 19 11q11 2 30 2zM622 569q-28 0 -48 14q-17 13 -20 24l-2 5l12 5l3 -5
q4 -10 15 -18q16 -11 40 -11q11 0 23 2l5 1l3 -13l-5 -1q-14 -3 -26 -3zM447 570q-13 0 -28 3l-5 1l2 13l6 -1q13 -2 25 -2q20 0 33 7t16 12t4 8l1 5l5 -1l8 -2l-1 -5q-4 -14 -18 -24q-18 -14 -48 -14zM450 471q-27 0 -37 12q-7 10 -5 22v0h1v1q15 35 55 35q16 0 31 -5h1
l2 -1l-3 -8l-2 1l-1 0.5t-2.5 1l-3 1t-4.5 1t-5.5 0.5t-6 0.5t-6.5 0.5h-2q-33 -1 -46 -30v0v-1q-1 -8 4 -14q8 -9 30 -9h4h3v-8h-2h-5zM529 465q-4 10 -8 11h-1q-6 0 -14 -14l-1 -3l-7 4l1 3q9 18 21 18h1q6 0 10 -6l2 -2l2 2q5 6 11 6h1q10 0 20 -18l1 -3l-7 -3l-1 2
q-8 14 -13 14h-1q-6 0 -10 -11l-4 -10zM465 495q-8 0 -13.5 7t-5.5 17t5.5 17t13.5 7t13.5 -7t5.5 -17t-5.5 -17t-13.5 -7zM617 471h-4h-3v8h3h2.5h1.5q23 0 31 9q4 6 3 14v1v0q-13 30 -48 30q-7 0 -14 -1.5t-10.5 -2.5l-3.5 -1l-3 -1l-1 2l-2 5l3 1v1q15 5 31 5
q40 0 56 -36v0v0v0q3 -13 -5 -22q-10 -12 -37 -12zM602 495q-8 0 -13.5 7t-5.5 17t5.5 17t13.5 7t13.5 -7t5.5 -17t-5.5 -17t-13.5 -7zM534 762l-0.5 0.5t-1.5 2l-2 3t-2 4t-2.5 5t-3 6t-2.5 6.5q-12 33 -5 58q9 30 43 45v0h1v0q7 2 18 2q17 0 27 -9q16 -15 8 -48v-1
q-5 -22 -21 -24q-2 -1 -3 -1q-13 0 -24 17l-3 5l11 7l3 -5q7 -10 13 -10h1q7 1 10 15q6 25 -4 35q-6 6 -18 6q-5 0 -14 -2q-28 -12 -35 -36q-4 -15 0.5 -34.5t9 -27l7.5 -12.5l3 -4l-7 -5l-4 -3zM741 755q5 4 14 9t33 11t45 1q3 0 8.5 0.5t14 4.5t9.5 13q1 1 1.5 2.5
t-0.5 5.5t-4 7.5t-11.5 6.5t-22.5 4q0 1 -12 -1.5t-33.5 -18t-41.5 -45.5zM345 676q-3 2 -8.5 3.5t-19 4.5t-22.5 2q-1 0 -4 1t-6.5 6t-2.5 12q0 2 2 3.5t8 4.5t13 -1q27 -7 40 -36zM302 598q-8 0 -19 -1t-32 -8t-25 -20q-6 -12 4 -20q14 -9 34 16l1.5 1.5t4 4.5t5.5 6
l6.5 6.5t7 6.5t7 5t6.5 3z" />
    <glyph glyph-name="tashequfanhuijian" unicode="&#xe62b;" 
d="M268 384l456 465l41 -41l-415 -424l409 -418l-41 -41z" />
    <glyph glyph-name="dingdan" unicode="&#xe62c;" 
d="M850 -126h-675q-43 0 -74 31t-31 74v809q0 43 31 74t74 31h675q43 0 74 -31t31 -74v-809q0 -43 -31 -74t-74 -31zM905 -19v806q0 21 -15.5 36.5t-36.5 15.5l-680 1q-22 0 -37.5 -16t-15.5 -37v-805q0 -22 15.5 -37.5t37.5 -15.5h680q21 0 36.5 15.5t15.5 36.5zM787 108
h-547q-8 0 -14 6.5t-6 14.5v6q0 9 6 15t14 6h547q8 0 14.5 -6t6.5 -15v-6q0 -8 -6 -14.5t-15 -6.5zM787 428h-547q-8 0 -14 6t-6 15v6q0 9 6 15t14 6h547q8 0 14.5 -6t6.5 -15v-6q0 -9 -6 -15t-15 -6zM787 268h-547q-8 0 -14 6t-6 15v6q0 9 6 15t14 6h547q8 0 14.5 -6
t6.5 -15v-6q0 -9 -6 -15t-15 -6zM513 634zM484 634q0 -12 8.5 -20.5t20.5 -8.5t20.5 8.5t8.5 20.5t-8.5 20.5t-20.5 8.5t-20.5 -8.5t-8.5 -20.5zM689 634zM660 634q0 -12 8.5 -20.5t20.5 -8.5t20.5 8.5t8.5 20.5t-8.5 20.5t-20.5 8.5t-20.5 -8.5t-8.5 -20.5zM337 634z
M308 634q0 -12 8.5 -20.5t20.5 -8.5t20.5 8.5t8.5 20.5t-8.5 20.5t-20.5 8.5t-20.5 -8.5t-8.5 -20.5z" />
    <glyph glyph-name="zuji1" unicode="&#xe62d;" 
d="M665 680q-64 29 -150 31q-68 1 -121 -29q-75 -41 -85 -121q-13 -108 51 -185q23 -28 38 -48q38 -53 22 -119q-9 -38 -31 -79q-14 -27 -20 -56q-7 -38 1 -75q12 -51 45 -85q46 -46 111 -40q89 9 139 77q29 39 50 89q52 117 85 257q21 85 14 163q0 3 -1 10t-2 13t-2 11
q-25 132 -144 186zM776 453q7 -72 -17 -172q-27 -113 -66 -202l-4.5 -11.5t-9 -21t-13.5 -26t-18 -29.5t-23.5 -28t-30 -25.5t-36 -18t-42.5 -8.5q-41 -2 -76.5 39t-32.5 82q2 39 10.5 67.5t21 52.5t17.5 38q8 22 6.5 60.5t-15.5 69.5q-7 16 -25.5 41.5t-35 47t-29 52.5
t-11.5 60q1 21 4 36.5t9.5 33.5t21 32t36.5 24q40 18 90 20t85 -5.5t60 -19.5q56 -25 86 -70.5t38 -118.5zM278 829q-37 15 -70 -0.5t-43 -54.5q-12 -44 12 -88t68 -58q36 -11 66.5 6.5t38.5 54.5q8 33 -6 70q-20 50 -66 70zM314 707q-4 -23 -22 -34t-40 -5q-26 7 -41.5 33
t-9.5 52q6 23 25 33.5t42 1.5q28 -11 41 -40q9 -22 5 -41zM507 872q-19 22 -45.5 22t-45.5 -22q-24 -27 -22 -67.5t29 -65.5q19 -17 43 -16t42 20q28 31 23 76q-5 33 -24 53zM500 814q3 -25 -12 -42q-10 -11 -23.5 -11.5t-23.5 9.5q-15 13 -16.5 36t12.5 37q10 12 24.5 12
t25.5 -12q11 -10 13 -29zM716 826q-11 22 -32.5 28t-42.5 -7q-27 -17 -34.5 -51.5t9.5 -60.5q12 -19 32 -23.5t39 6.5q30 19 36 58q4 29 -7 50zM696 778q-3 -20 -19 -30q-10 -6 -20 -3.5t-17 12.5q-8 14 -4 32t17 26q11 7 22.5 4t17.5 -15q5 -11 3 -26zM858 717
q-10 21 -29 27.5t-39 -4.5q-25 -14 -33.5 -44.5t5.5 -55.5q10 -18 28 -23t36 5q28 15 36 50q4 26 -4 45zM833 677q-4 -16 -17 -23q-18 -10 -29 9q-6 11 -2 25t15 20q9 5 18 2t13 -12t2 -21z" />
    <glyph glyph-name="fankui" unicode="&#xe62e;" horiz-adv-x="1068" 
d="M309 432q-19 0 -32.5 13.5t-13.5 32.5t13.5 32.5t32.5 13.5t32.5 -13.5t13.5 -32.5t-13.5 -32.5t-32.5 -13.5zM536.5 432q-19.5 0 -33 13.5t-13.5 32.5t13.5 32.5t33 13.5t33 -13.5t13.5 -32.5t-13.5 -32.5t-33 -13.5zM764 432q-19 0 -32.5 13.5t-13.5 32.5t13.5 32.5
t32.5 13.5t32.5 -13.5t13.5 -32.5t-13.5 -32.5t-32.5 -13.5zM817 -123q-5 1 -13 6l-294 157h-364q-62 0 -100.5 38.5t-38.5 100.5v571q-1 62 38 100.5t101 38.5h777q62 0 101 -38.5t39 -100.5v-571q0 -62 -39 -100.5t-101 -38.5h-110l20 -133q3 -23 -1 -28q-7 -4 -15 -2z
M129 840q-31 0 -53 -22t-22 -53v-596q0 -31 22 -53.5t53 -22.5h398q4 0 7.5 -0.5t5.5 -2t8 -5t11 -6.5l212 -119q-1 2 -1.5 4t-2 9.5t-3 14.5t-3.5 17t-3 19t-2.5 18t-2 16t0 12t1.5 6q1 3 2.5 5t4 3.5t5 2.5t5.5 1.5t5.5 1t6.5 1t5.5 0.5h5.5h5l140 2q31 0 53 22t22 54v596
q0 31 -22 53t-52 22h-812z" />
    <glyph glyph-name="next2" unicode="&#xe62f;" 
d="M265.5 -123q-5.5 0 -8.5 3q-9 10 0 19l485 485l-485 485q-10 9 0 19q4 3 9 3t9 -3l495 -495q9 -9 -1 -18l-494 -494q-4 -4 -9.5 -4zM266 -116q-2 0 -4 2q-4 4 0 8l490 490l-490 490q-4 4 0 8q2 2 4 2t4 -2l494 -494q4 -4 0 -8l-494 -494q-2 -2 -4 -2z" />
    <glyph glyph-name="fanhui2" unicode="&#xe630;" 
d="M762 -124q-8 0 -14 5l-499 489q-6 6 -6 13.5t6 13.5l499 488q6 6 14.5 6t14.5 -6q6 -5 6 -12.5t-6 -13.5l-485 -476l485 -475q6 -5 6 -13t-6 -14v0q-6 -5 -15 -5z" />
    <glyph glyph-name="shanchu2" unicode="&#xe631;" 
d="M681 550h56v-446h-56v446zM542 144v354h-56v-354h56zM292 550h55v-446h-55v446zM737 716v112q0 23 -16.5 39t-39.5 16h-334q-23 0 -39 -16t-16 -39v-112h-250v-55h83v-723q0 -23 16.5 -39.5t38.5 -16.5h668q23 0 39.5 16.5t16.5 39.5v723h82v55h-249zM347 828h334v-112
h-334v112zM848 -62h-668v723h668v-723z" />
    <glyph glyph-name="wode" unicode="&#xe632;" horiz-adv-x="1064" 
d="M0 -121zM4 -112q1 3 2 5q-2 -3 -2 -5zM1054 -93v0q-51 117 -150 200.5t-224 115.5l1.5 0.5t2.5 0.5h0.5h0.5q92 41 148 126.5t56 189.5q0 95 -46.5 175.5t-127 127t-175 46.5t-174.5 -46.5t-127 -127t-47 -175.5q0 -104 56 -189t148 -127v0q1 -1 1.5 -1t0.5 -1l1 1
q0 -1 0.5 -1h0.5q-175 -45 -290 -182q-50 -60 -81 -129q0 -1 -1 -2.5t-1 -2.5q-2 -4 -2 -7q0 -9 6.5 -15.5t15.5 -6.5q10 0 17 8l2 4h1q0 1 1 3q28 64 74 118q66 79 158.5 127.5t199.5 56.5q31 3 41 3q19 0 40 -2q144 -11 260.5 -93.5t172.5 -210.5v-0.5v-0.5l0.5 -0.5
l0.5 -0.5q6 -12 19 -12q9 0 15.5 6.5t6.5 15.5q0 4 -2 8zM560 240q-15 -2 -22 -2q-2 0 -4.5 0.5t-5.5 0.5h-5h1v0q-120 7 -202.5 94t-82.5 208q0 125 88 213t213.5 88t213.5 -88t88 -213q0 -119 -80.5 -206t-198.5 -95q1 0 3 -0.5t3 -0.5v0h-1t-4 0.5t-4 0.5zM635 222
q3 -2 9 -4t33 6t63 32q44 29 26 24l-47 -21v0l-62 -17z" />
    <glyph glyph-name="gouwuche1" unicode="&#xe633;" horiz-adv-x="1096" 
d="M1071 696q-32 43 -80 43h-808l-8 63q-5 36 -32.5 60t-65.5 24h-45q-11 0 -18 -7t-7 -17.5t7 -17.5t18 -7h45q18 0 32.5 -10t16.5 -29l94 -719q5 -35 32.5 -56.5t65.5 -21.5h624q10 0 17.5 7t7.5 17.5t-7.5 17.5t-17.5 7h-624q-20 0 -33.5 10t-15.5 27l-8 60h622
q34 0 60.5 18t34.5 49l108 400q13 46 -15 82zM1039 627l-109 -400q-7 -30 -47 -30h-628l-65 492h801q24 0 41 -22q13 -17 7 -40zM425 -73h-98q-10 0 -17.5 -7t-7.5 -17.5t7.5 -17.5t17.5 -7h98q10 0 17.5 7t7.5 17.5t-7.5 17.5t-17.5 7zM868 -73h-98q-10 0 -17.5 -7
t-7.5 -17.5t7 -17.5t18 -7h98q10 0 17.5 7t7.5 17.5t-7.5 17.5t-17.5 7z" />
  </font>
</defs>
</svg>
